<svg width="48" height="48" viewBox="0 0 48 48" fill="none" xmlns="http://www.w3.org/2000/svg">
<path d="M0 6.42854C0 4.60711 1.5 2.99997 3.42857 2.99997H44.5714C46.3929 2.99997 48 4.60711 48 6.42854C48 8.35711 46.3929 9.85711 44.5714 9.85711H3.42857C1.5 9.85711 0 8.35711 0 6.42854ZM0 23.5714C0 21.75 1.5 20.1428 3.42857 20.1428H44.5714C46.3929 20.1428 48 21.75 48 23.5714C48 25.5 46.3929 27 44.5714 27H3.42857C1.5 27 0 25.5 0 23.5714ZM48 40.7143C48 42.6428 46.3929 44.1428 44.5714 44.1428H3.42857C1.5 44.1428 0 42.6428 0 40.7143C0 38.8928 1.5 37.2857 3.42857 37.2857H44.5714C46.3929 37.2857 48 38.8928 48 40.7143Z" fill="black"/>
</svg>
