<svg width="289" height="223" viewBox="0 0 289 223" fill="none" xmlns="http://www.w3.org/2000/svg">
<path fill-rule="evenodd" clip-rule="evenodd" d="M145.704 87.6931L139.683 86.4877L137.576 82.5702V16.2729L138.78 13.2594L142.091 11.1499H146.306L150.219 15.0675V83.1729L149.617 84.981L145.704 87.6931Z" fill="#0B0B0F"/>
<path fill-rule="evenodd" clip-rule="evenodd" d="M169.787 87.0903H164.369L161.057 83.1728V36.162L164.971 32.2444H169.787L173.099 35.5592V83.1728L169.787 87.0903Z" fill="#0B0B0F"/>
<path fill-rule="evenodd" clip-rule="evenodd" d="M123.427 79.8581L117.406 79.2554L114.697 75.3378V40.9837L118.61 37.0662L124.631 37.6689L127.341 42.1891V74.7351L126.136 77.7486L123.427 79.8581Z" fill="#0B0B0F"/>
<path fill-rule="evenodd" clip-rule="evenodd" d="M190.258 93.7201L185.441 93.1174L182.732 89.8025V58.462L184.839 55.7498L187.85 54.5444L192.064 55.1471L194.774 58.462V89.8025L192.064 93.1174L190.258 93.7201Z" fill="#0B0B0F"/>
<path fill-rule="evenodd" clip-rule="evenodd" d="M99.3434 93.7203L95.7309 93.1176L92.4194 89.2V59.6676L96.333 55.75H100.548L104.461 59.0649V89.8027L102.354 92.5149L99.3434 93.7203Z" fill="#0B0B0F"/>
<path fill-rule="evenodd" clip-rule="evenodd" d="M78.2706 100.953L74.0561 99.7471L71.3467 95.2268V75.3377L75.2602 70.8174H80.0769L83.9904 74.735V96.4322L80.679 100.35L78.2706 100.953Z" fill="#0B0B0F"/>
<path fill-rule="evenodd" clip-rule="evenodd" d="M210.729 100.953L207.117 100.35L203.805 95.8295V75.3377L207.719 70.8174H212.535L216.449 74.735V96.4322L213.137 100.35L210.729 100.953Z" fill="#0B0B0F"/>
<path fill-rule="evenodd" clip-rule="evenodd" d="M211.933 209.439H78.2707L70.4436 207.631L59.004 201.001L52.6821 194.07L48.4675 186.235L46.6613 179.003V142.841L18.0623 142.539L16.5571 141.032V125.965L19.2665 123.855H46.3603L46.6613 116.322L49.3707 114.212H240.833L243.543 116.924L243.844 123.855L272.142 124.458L273.647 126.568V140.43L272.142 142.539H244.446L243.543 143.443V179.605L240.532 189.249L235.715 196.481L228.189 203.412L219.76 207.631L211.933 209.439Z" fill="#0B0B0F"/>
<path fill-rule="evenodd" clip-rule="evenodd" d="M85.7967 163.935L86.3988 127.773L85.4956 126.869H72.8519L71.3467 130.184V162.127L72.8519 164.236L85.7967 163.935Z" fill="#0B0B0F"/>
</svg>
