<svg width="49" height="49" viewBox="0 0 49 49" fill="none" xmlns="http://www.w3.org/2000/svg">
<path d="M32.4642 0.5625C32.8392 0.1875 33.2142 0 33.7767 0C34.2455 0 34.7142 0.1875 34.9955 0.5625C35.8392 1.6875 37.5267 4.21875 37.5267 7.5C37.5267 10.5 36.7767 11.25 36.7767 11.25C36.7767 11.25 37.5267 10.5 40.5267 10.5C43.808 10.5 46.3392 12.1875 47.4642 13.0312C47.8392 13.3125 48.0267 13.7812 48.0267 14.25C48.0267 14.8125 47.8392 15.1875 47.4642 15.5625C46.433 16.4062 43.9955 18 41.2767 18C37.5267 18 36.0267 16.5938 33.7767 14.25C31.433 12 30.0267 10.5 30.0267 6.75C30.0267 4.03125 31.6205 1.59375 32.4642 0.5625ZM22.9017 12.75C29.7455 12.75 35.2767 18.2812 35.2767 25.125C35.2767 29.9062 32.4642 34.3125 28.058 36.2812L18.683 40.5938L13.058 34.9688C12.4955 34.4062 11.4642 34.4062 10.9017 34.9688C10.3392 35.5312 10.3392 36.5625 10.9017 37.125L15.7767 42L3.21425 47.8125C2.27675 48.1875 1.33925 48.0938 0.682995 47.3438C-0.0670047 46.6875 -0.160755 45.6562 0.214245 44.8125L11.7455 19.9688V19.875L16.9017 25.125C17.558 25.6875 18.4955 25.6875 19.058 25.125C19.6205 24.5625 19.6205 23.5312 19.058 22.9688L13.3392 17.3438C15.683 14.5312 19.1517 12.75 22.9017 12.75Z" fill="black"/>
</svg>
