<svg width="48" height="48" viewBox="0 0 48 48" fill="none" xmlns="http://www.w3.org/2000/svg">
<path d="M47.9167 24.0426C47.9167 25.5426 46.6667 26.7092 45.25 26.7092H42.5833L42.6667 40.0426C42.6667 40.2926 42.6667 40.5426 42.6667 40.7092V42.1259C42.6667 43.9592 41.1667 45.4592 39.3333 45.4592H38C37.8333 45.4592 37.75 45.4592 37.6667 45.3759C37.5833 45.4592 37.4167 45.4592 37.3333 45.4592L34.6667 45.3759H32.6667C30.75 45.3759 29.3333 43.9592 29.3333 42.0426V34.7092C29.3333 33.2926 28.0833 32.0426 26.6667 32.0426H21.3333C19.8333 32.0426 18.6667 33.2926 18.6667 34.7092V42.0426C18.6667 43.9592 17.1667 45.3759 15.3333 45.3759H10.6667C10.5 45.3759 10.4167 45.3759 10.25 45.3759C10.1667 45.3759 10.0833 45.3759 10 45.3759H8.66667C6.75 45.3759 5.33333 43.9592 5.33333 42.0426V32.7092C5.33333 32.7092 5.33333 32.6259 5.33333 32.5426V26.7092H2.66667C1.16667 26.7092 0 25.5426 0 24.0426C0 23.2926 0.25 22.6259 0.833333 22.0426L22.1667 3.3759C22.75 2.79256 23.4167 2.70923 24 2.70923C24.5833 2.70923 25.25 2.8759 25.75 3.29256L47 22.0426C47.6667 22.6259 48 23.2926 47.9167 24.0426Z" fill="black"/>
</svg>
