<svg width="322" height="322" viewBox="0 0 322 322" fill="none" xmlns="http://www.w3.org/2000/svg">
<path d="M106.913 0.0711042C92.553 -0.936784 80.5237 8.89013 76.9968 21.9297L70.8877 44.8592C184.757 45.0481 276.96 137.27 277.149 251.161L300.074 245.051C313.174 241.586 322.936 229.492 321.929 215.129C313.993 99.978 222.041 8.00823 106.913 0.0711042ZM246.73 259.287C246.856 256.705 246.919 254.122 246.919 251.476C246.919 154.089 167.941 75.0958 70.5728 75.0958C67.9906 75.0958 65.3454 75.1588 62.7632 75.2848L0.349352 309.367C-0.595357 312.832 0.412332 316.548 2.93156 319.068C5.45078 321.588 9.16664 322.595 12.6306 321.651L246.667 259.224L246.73 259.287ZM110.88 130.53C122.028 130.53 131.034 139.538 131.034 150.687C131.034 161.837 122.028 170.845 110.88 170.845C99.7328 170.845 90.7266 161.837 90.7266 150.687C90.7266 139.538 99.7328 130.53 110.88 130.53ZM151.188 211.161C151.188 200.011 160.194 191.003 171.342 191.003C182.489 191.003 191.496 200.011 191.496 211.161C191.496 222.311 182.489 231.319 171.342 231.319C160.194 231.319 151.188 222.311 151.188 211.161ZM60.4959 241.397C60.4959 230.248 69.5021 221.24 80.6497 221.24C91.7973 221.24 100.803 230.248 100.803 241.397C100.803 252.547 91.7973 261.555 80.6497 261.555C69.5021 261.555 60.4959 252.547 60.4959 241.397Z" fill="black"/>
</svg>
